<svg width="246" height="247" viewBox="0 0 246 247" fill="none" xmlns="http://www.w3.org/2000/svg">
<g clip-path="url(#clip0_229_197)">
<path d="M229.135 122.706C229.15 181.512 182.799 229.2 125.6 229.216C68.4013 229.236 22.014 181.574 21.9984 122.768V122.701C21.9829 63.8901 68.3339 16.2018 125.533 16.1863C182.732 16.1707 229.114 63.8227 229.135 122.634V122.706Z" fill="url(#paint0_linear_229_197)"/>
<path d="M135.702 17.6582L94.2383 20.2497C93.3202 20.2973 92.429 20.5754 91.6468 21.0582L55.3662 44.3815C54.5838 44.8642 53.9353 45.5358 53.4803 46.3346C53.0254 47.1334 52.7786 48.0338 52.7626 48.953C52.7466 49.8721 52.9619 50.7806 53.3888 51.5947C53.8157 52.4089 54.4404 53.1027 55.2055 53.6123C59.9894 56.8361 64.7266 60.5471 66.0586 63.9782C68.9248 71.5764 72.1797 82.7093 74.9681 92.3237C76.1902 96.6113 77.4862 100.877 78.8553 105.12C79.441 106.893 79.923 108.479 80.4724 109.816C81.0217 111.153 81.369 112.169 82.7425 113.703C82.9498 113.88 83.1623 114.04 83.3904 114.191C85.8419 116.186 88.3971 117.28 91.4861 118.238C94.5751 119.197 98.141 119.954 101.531 120.509C104.92 121.063 108.17 121.265 111.088 121.317C114.006 121.369 116.064 122.006 119.51 119.861C119.676 119.762 119.842 119.653 119.997 119.539C121.475 118.363 121.625 117.575 121.941 116.948C122.257 116.321 122.527 115.797 122.75 115.165C123.201 113.9 123.61 112.48 124.045 110.791C126.111 102.65 127.573 94.3671 128.42 86.0109C128.793 82.3413 129.239 79.9105 128.42 76.6194C128.378 76.4483 128.472 76.3084 128.42 76.1322H128.249C127.419 72.1258 125.294 66.326 121.609 59.7748C118.323 53.9507 113.92 48.8324 108.652 44.7132C108.839 44.5162 109.258 44.1638 110.269 43.7388L130.519 43.8943C131.125 43.8891 131.726 43.7751 132.302 43.5729C132.779 43.4174 133.281 43.7492 135.702 42.5985C136.915 42.0284 138.397 40.712 139.102 39.3592C139.807 38.0065 140.102 36.861 140.237 35.6327L141.533 23.8104C141.632 23.0064 141.552 22.1905 141.298 21.4211C141.045 20.6517 140.625 19.9478 140.067 19.3599C139.51 18.7719 138.83 18.3145 138.075 18.0203C137.32 17.7261 136.51 17.6025 135.702 17.6582Z" fill="url(#paint1_linear_229_197)"/>
<path d="M136.023 23.1625L134.727 34.9693C134.365 38.3278 132.95 37.5089 130.462 38.3175L109.129 38.2397C102.837 40.2611 102.147 43.6093 102.572 46.4702C114.524 53.1148 121.988 71.9755 123.071 77.5782C124.605 82.9789 118.691 113.48 116.592 115.155C113.052 117.357 92.077 114.273 86.7904 109.972C83.9501 106.784 77.2693 78.0084 71.2415 62.0294C69.0232 56.3126 63.0732 52.2959 58.2842 49.0721L94.5648 25.7488L136.023 23.1625Z" fill="url(#paint2_radial_229_197)"/>
<path d="M32.525 83.2535C31.5429 83.3458 30.6128 83.7372 29.8602 84.3749C29.1076 85.0126 28.5688 85.8658 28.3164 86.8194L15.8463 129.418C15.5602 130.4 15.5944 131.447 15.9439 132.408C16.2934 133.369 16.94 134.193 17.7899 134.762C22.5737 137.98 27.5234 141.738 28.9643 145.449C29.0985 145.734 29.2617 146.005 29.4515 146.257C29.4929 146.397 29.55 146.459 29.6122 146.745C29.835 147.709 30.0942 149.383 30.4207 151.28C31.0789 155.074 31.9859 160.22 33.1728 165.533C34.3597 170.845 35.8213 176.334 38.0344 181.082C40.2475 185.829 43.207 190.224 48.4003 191.935C47.1409 191.52 48.1878 191.986 48.8875 192.422C49.5872 192.857 50.5046 193.453 51.6397 194.205C53.9098 195.708 56.8122 197.594 59.7354 199.548C62.6586 201.502 65.5973 203.576 67.997 205.053C69.1943 205.794 70.2827 206.338 71.2364 206.836C71.7132 207.084 72.1434 207.276 72.6928 207.483C73.2422 207.691 73.5635 208.204 75.7714 207.805C78.3111 207.349 79.0937 205.934 79.498 205.213C79.9022 204.493 79.9903 203.949 80.1458 203.43C80.4516 202.399 80.7678 201.368 80.9544 200.191C81.3327 197.833 81.6074 194.925 81.9288 192.095C82.2501 189.265 82.5766 186.399 82.9032 184.482C83.0379 183.694 83.1416 183.346 83.2245 183.025C83.5821 182.719 84.09 182.761 84.3596 182.377C85.4169 180.89 85.5361 179.345 85.4946 178.169C85.4065 175.81 84.655 174.007 83.7117 172.011C81.8251 168.015 78.7361 163.418 75.2894 158.567C68.6397 149.201 61.0363 139.981 57.6363 136.218C57.3513 135.285 57.1906 134.326 56.8278 133.305C56.3769 132.03 55.8689 130.641 55.532 129.418C62.7001 132.476 70.1272 135.233 78.3681 136.218C78.8589 136.24 79.3503 136.186 79.8245 136.057C82.3964 135.626 84.9016 134.863 87.2776 133.787C88.677 133.155 90.1593 132.507 91.4861 131.356C92.8129 130.206 94.2901 128.361 94.5648 125.852C94.6898 124.71 94.4031 123.562 93.7562 122.613C84.5462 108.847 71.3089 105.328 57.4756 100.264L49.5302 90.5407C49.0442 89.9766 48.4339 89.5331 47.7473 89.245L34.9506 83.7407C34.1996 83.3658 33.3624 83.1977 32.525 83.2535Z" fill="url(#paint3_linear_229_197)"/>
<path d="M54.5214 104.338C69.1373 109.79 81.1254 112.568 89.6565 125.318C89.2937 128.672 81.9547 130.931 78.9745 131.419C70.122 130.356 61.9744 127.179 53.9772 123.551C46.068 121.846 52.9509 135.798 53.3759 138.659C59.0253 144.806 87.0443 179.159 79.3528 180.092C77.4662 180.325 76.6525 202.871 74.8955 203.182C73.1385 203.493 51.7692 187.954 49.8515 187.327C37.5317 183.269 35.5103 144.832 33.4993 143.681C31.2862 137.965 25.331 133.948 20.542 130.724L33.0018 88.1618L45.8658 93.6609L54.5214 104.338Z" fill="url(#paint4_radial_229_197)"/>
<path d="M228 66.5484L227.839 30.7666C227.849 29.9171 227.689 29.0741 227.367 28.2873C227.045 27.5004 226.568 26.7856 225.964 26.1849C225.36 25.5842 224.641 25.1097 223.85 24.7894C223.059 24.4691 222.212 24.3095 221.358 24.3199L188.465 24.0001C187.205 23.9931 185.97 24.3548 184.914 25.0403C183.859 25.7258 183.029 26.7049 182.529 27.8557C182.028 29.0065 181.879 30.2783 182.099 31.5129C182.319 32.7476 182.9 33.8905 183.768 34.7996L216.821 70.9012C218.61 72.8661 221.436 73.5263 223.924 72.5619C225.136 72.0878 226.174 71.2591 226.902 70.1853C227.63 69.1115 228.012 67.8433 228 66.5484Z" fill="black" fill-opacity="0.318"/>
<path d="M226 66.6706L225.841 30.5502C225.827 29.4337 225.385 28.367 224.609 27.5774C223.834 26.7878 222.786 26.3376 221.689 26.3228L189.251 26C188.435 25.9966 187.636 26.2333 186.949 26.6816C186.262 27.1299 185.717 27.7707 185.379 28.5269C185.042 29.2832 184.926 30.1226 185.046 30.9443C185.166 31.766 185.516 32.5349 186.055 33.1585L218.652 69.6016C219.229 70.2432 219.983 70.6919 220.815 70.8885C221.647 71.0852 222.519 71.0206 223.314 70.7033C224.109 70.386 224.792 69.8309 225.271 69.111C225.751 68.3912 226.005 67.5403 226 66.6706Z" fill="black" fill-opacity="0.318"/>
<path d="M225 67.0995L224.838 31.2312C224.845 30.8477 224.774 30.4667 224.63 30.1107C224.486 29.7547 224.272 29.4308 224.001 29.1581C223.726 28.8881 223.401 28.675 223.042 28.5312C222.684 28.3874 222.301 28.3158 221.915 28.3206L188.91 28.0001C188.344 27.9956 187.788 28.1569 187.313 28.4638C186.838 28.7707 186.465 29.2097 186.239 29.7261C186.013 30.2425 185.945 30.8135 186.044 31.368C186.142 31.9224 186.403 32.4358 186.793 32.8442L219.959 69.033C220.348 69.4709 220.863 69.7799 221.435 69.9184C222.006 70.0569 222.607 70.0184 223.156 69.8079C223.704 69.5974 224.175 69.2251 224.505 68.7409C224.835 68.2568 225.007 67.684 225 67.0995Z" fill="black" fill-opacity="0.318"/>
<path d="M223 66.6933L222.839 30.7757C222.817 30.6047 222.762 30.4395 222.677 30.2891C222.605 30.1061 222.495 29.9403 222.355 29.8024C222.305 29.7451 222.251 29.6915 222.193 29.6419C221.994 29.534 221.77 29.4787 221.543 29.4815C221.493 29.4241 221.439 29.3705 221.381 29.321L188.358 29C188.244 29.0388 188.136 29.0927 188.036 29.1605C187.864 29.1832 187.698 29.2376 187.546 29.321C187.423 29.4104 187.314 29.5188 187.224 29.6419C187.141 29.7934 187.087 29.9581 187.062 30.1286C186.979 30.3914 186.979 30.6733 187.062 30.9362C187.136 31.1184 187.245 31.284 187.385 31.4228L220.569 67.6614C220.724 67.7942 220.907 67.8917 221.103 67.9471C221.3 68.0026 221.507 68.0146 221.709 67.9823C221.936 67.9826 222.159 67.9275 222.36 67.8218C222.422 67.7701 222.469 67.7183 222.521 67.6614C222.664 67.5249 222.774 67.3587 222.844 67.1747C222.924 67.0245 222.977 66.8616 223 66.6933Z" fill="black" fill-opacity="0.333"/>
<path d="M191 31.1347L222 31L221.702 64L191 31.1347Z" fill="url(#paint5_linear_229_197)"/>
<path d="M191.454 219L227.234 218.839C228.083 218.849 228.925 218.688 229.712 218.366C230.498 218.043 231.213 217.567 231.813 216.963C232.414 216.359 232.888 215.641 233.209 214.851C233.53 214.06 233.69 213.213 233.68 212.36L234 179.477C234.012 178.215 233.653 176.977 232.968 175.919C232.283 174.861 231.303 174.029 230.151 173.528C228.998 173.026 227.724 172.878 226.488 173.101C225.251 173.324 224.108 173.908 223.201 174.781L187.101 207.825C186.14 208.698 185.467 209.845 185.17 211.113C184.873 212.381 184.967 213.709 185.439 214.922C185.912 216.135 186.74 217.175 187.814 217.903C188.889 218.631 190.158 219.014 191.454 219Z" fill="black" fill-opacity="0.318"/>
<path d="M191.337 217L227.451 216.841C228.567 216.826 229.632 216.383 230.421 215.608C231.211 214.833 231.661 213.786 231.677 212.69L232 180.257C232.006 179.44 231.77 178.639 231.323 177.951C230.875 177.263 230.234 176.717 229.477 176.379C228.72 176.041 227.879 175.926 227.057 176.047C226.235 176.168 225.466 176.52 224.843 177.062L188.406 209.653C187.762 210.229 187.311 210.983 187.113 211.816C186.915 212.649 186.979 213.521 187.296 214.318C187.614 215.114 188.17 215.797 188.892 216.276C189.613 216.755 190.466 217.007 191.337 217Z" fill="black" fill-opacity="0.318"/>
<path d="M190.777 216.273L226.763 216.11C227.146 216.114 227.527 216.04 227.882 215.894C228.237 215.747 228.56 215.53 228.831 215.256C229.103 214.983 229.317 214.657 229.463 214.298C229.608 213.94 229.681 213.556 229.677 213.168L229.999 179.958C230.014 179.383 229.858 178.818 229.551 178.333C229.245 177.849 228.803 177.468 228.281 177.239C227.759 177.01 227.181 176.944 226.621 177.048C226.061 177.153 225.545 177.424 225.139 177.827L188.832 211.2C188.368 211.207 187.914 211.327 187.506 211.549C187.099 211.772 186.75 212.09 186.491 212.478C186.232 212.866 186.07 213.311 186.018 213.775C185.966 214.24 186.026 214.71 186.194 215.147C186.361 215.583 186.63 215.971 186.978 216.28C187.327 216.588 187.744 216.807 188.194 216.918C188.644 217.028 189.114 217.027 189.564 216.915C190.013 216.803 190.43 216.582 190.777 216.273Z" fill="black" fill-opacity="0.318"/>
<path d="M191.307 214L227.224 213.843C227.395 213.821 227.56 213.768 227.711 213.686C227.894 213.616 228.06 213.509 228.198 213.372C228.255 213.324 228.309 213.272 228.358 213.216C228.466 213.021 228.521 212.804 228.519 212.583C228.576 212.535 228.63 212.482 228.679 212.426L229 180.321C228.959 180.21 228.905 180.105 228.84 180.007C228.814 179.841 228.76 179.68 228.679 179.531C228.59 179.411 228.481 179.305 228.358 179.217C228.207 179.137 228.042 179.084 227.871 179.061C227.609 178.98 227.327 178.98 227.064 179.061C226.881 179.131 226.715 179.237 226.577 179.374L190.339 211.637C190.206 211.787 190.108 211.965 190.053 212.156C189.997 212.348 189.985 212.548 190.018 212.745C190.018 212.968 190.075 213.185 190.178 213.378C190.225 213.438 190.287 213.484 190.339 213.534C190.474 213.674 190.641 213.781 190.825 213.848C190.975 213.928 191.138 213.98 191.307 214Z" fill="black" fill-opacity="0.333"/>
<path d="M226.892 176L227 212H192L226.892 176Z" fill="url(#paint6_linear_229_197)"/>
<path d="M12.0001 176.439L12.1608 212.231C12.1525 213.08 12.3145 213.923 12.6371 214.709C12.9598 215.495 13.4368 216.209 14.0402 216.81C14.6435 217.41 15.3612 217.885 16.1511 218.206C16.941 218.527 17.7873 218.688 18.6406 218.68L51.5265 219C54.108 219.025 56.4459 217.509 57.4723 215.151C57.9732 213.998 58.1218 212.724 57.8997 211.487C57.6775 210.25 57.0943 209.106 56.223 208.197L23.1764 172.085C22.3001 171.13 21.1533 170.461 19.8872 170.167C18.6211 169.873 17.2953 169.969 16.0847 170.44C14.8742 170.912 13.8357 171.738 13.1065 172.809C12.3773 173.88 11.9915 175.146 12.0001 176.439Z" fill="black" fill-opacity="0.318"/>
<path d="M15.0002 176.342L15.1586 212.451C15.1744 213.567 15.6173 214.634 16.3931 215.423C17.1688 216.212 18.2162 216.662 19.3125 216.677L51.7265 217C52.5455 217.012 53.3504 216.781 54.0425 216.335C54.7345 215.888 55.2837 215.246 55.6226 214.486C55.9616 213.726 56.0757 212.883 55.9508 212.058C55.826 211.233 55.4677 210.464 54.9198 209.843L22.3475 173.412C21.7722 172.767 21.0184 172.315 20.1856 172.115C19.3528 171.915 18.48 171.977 17.6826 172.293C16.8857 172.612 16.2027 173.17 15.7238 173.893C15.2448 174.616 14.9925 175.47 15.0002 176.342Z" fill="black" fill-opacity="0.318"/>
<path d="M16.0003 176.906L16.1615 212.773C16.1541 213.157 16.2249 213.538 16.3697 213.893C16.5144 214.248 16.7301 214.571 17.0036 214.841C17.5547 215.394 18.3033 215.694 19.0883 215.679L52.0682 215.999C52.6382 216.013 53.1992 215.856 53.6794 215.551C54.1596 215.245 54.5372 214.804 54.7639 214.284C54.9905 213.764 55.056 213.188 54.9517 212.631C54.8475 212.073 54.5784 211.56 54.1789 211.155L21.0378 174.967C20.6481 174.529 20.1329 174.22 19.5613 174.081C18.9897 173.943 18.3892 173.982 17.8406 174.193C17.292 174.404 16.8215 174.777 16.4925 175.262C16.1635 175.747 15.9917 176.321 16.0003 176.906Z" fill="black" fill-opacity="0.318"/>
<path d="M17 176.308L17.1614 212.224C17.1842 212.395 17.2389 212.56 17.3227 212.711C17.3961 212.893 17.5059 213.059 17.6455 213.198C17.6923 213.26 17.7496 213.306 17.8068 213.358C18.0065 213.466 18.2304 213.521 18.4575 213.519C18.5043 213.581 18.5616 213.627 18.6189 213.679L51.6415 214C51.7554 213.96 51.8639 213.906 51.9643 213.84C52.1354 213.814 52.301 213.76 52.4536 213.679C52.5774 213.59 52.6863 213.481 52.7763 213.358C52.8586 213.207 52.9132 213.042 52.9377 212.871C53.0208 212.609 53.0208 212.327 52.9377 212.064C52.8631 211.882 52.7534 211.717 52.6149 211.577L19.4309 175.34C19.2768 175.206 19.0945 175.107 18.8973 175.052C18.7001 174.996 18.493 174.985 18.2909 175.019C18.0642 175.02 17.8409 175.075 17.6403 175.18C17.5814 175.228 17.5273 175.282 17.4789 175.34C17.3376 175.478 17.2276 175.644 17.1562 175.827C17.074 175.976 17.021 176.139 17 176.308Z" fill="black" fill-opacity="0.333"/>
<path d="M53 212H19V176L53 212Z" fill="url(#paint7_linear_229_197)"/>
<path d="M60.5388 24.0005L24.7652 24.1612C23.9165 24.1529 23.0747 24.3148 22.289 24.6375C21.5033 24.9601 20.7895 25.4371 20.1893 26.0404C19.5892 26.6437 19.1147 27.3612 18.7937 28.151C18.4728 28.9409 18.3117 29.7871 18.32 30.6403L18.0003 63.5226C17.9884 64.7849 18.3472 66.0227 19.0317 67.081C19.7163 68.1393 20.6961 68.9711 21.8486 69.4724C23.0011 69.9737 24.2751 70.1221 25.5111 69.8991C26.7471 69.6761 27.8902 69.0915 28.7973 68.2186L64.8906 35.1756C65.8542 34.303 66.5303 33.1559 66.8288 31.8872C67.1273 30.6185 67.0339 29.2884 66.5611 28.0744C66.0884 26.8604 65.2587 25.8201 64.1827 25.0923C63.1067 24.3644 61.8356 23.9836 60.5388 24.0005Z" fill="black" fill-opacity="0.318"/>
<path d="M60.6678 27.0001L24.5499 27.1586C23.4339 27.1745 22.368 27.617 21.5788 28.3922C20.7895 29.1674 20.339 30.2142 20.3228 31.3104L20.0001 63.7472C19.9953 64.563 20.2309 65.3628 20.6785 66.0501C21.1261 66.7373 21.7665 67.2827 22.5226 67.6205C23.2787 67.9583 24.1181 68.0741 24.9397 67.9538C25.7613 67.8336 26.5299 67.4825 27.1528 66.9429L63.5935 34.3475C64.2374 33.7722 64.6884 33.0184 64.8868 32.1859C65.0852 31.3534 65.0217 30.4814 64.7046 29.6851C64.3876 28.8888 63.8319 28.2058 63.1111 27.7264C62.3903 27.247 61.5383 26.9937 60.6678 27.0001Z" fill="black" fill-opacity="0.318"/>
<path d="M60.0998 28.0002L24.2267 28.1615C23.8434 28.1551 23.4627 28.2264 23.1073 28.3711C22.7519 28.5157 22.4291 28.7308 22.158 29.0035C21.8869 29.2762 21.6731 29.601 21.5293 29.9585C21.3855 30.316 21.3146 30.699 21.3209 31.0846L21.0003 64.0815C20.992 64.6495 21.1512 65.2074 21.4576 65.6846C21.7641 66.1618 22.2043 66.537 22.7225 66.7629C23.2407 66.9888 23.8139 67.0552 24.3696 66.9538C24.9253 66.8524 25.4387 66.5877 25.8451 66.1932L62.0387 33.0351C62.4751 32.6448 62.7825 32.1297 62.9198 31.5587C63.057 30.9878 63.0175 30.3883 62.8066 29.8406C62.5956 29.2929 62.2233 28.8231 61.7396 28.4942C61.2558 28.1652 60.6836 27.9929 60.0998 28.0002Z" fill="black" fill-opacity="0.318"/>
<path d="M60.6913 29L24.7756 29.1613C24.6046 29.1833 24.4394 29.2381 24.289 29.3227C24.1054 29.3959 23.9395 29.5077 23.8024 29.6506C23.7438 29.699 23.6901 29.7531 23.6419 29.8119C23.538 30.0129 23.4829 30.2359 23.4814 30.4625C23.4229 30.5109 23.3691 30.565 23.321 30.6238L23 63.6417C23.0377 63.7565 23.0917 63.8652 23.1605 63.9644C23.1823 64.1363 23.2368 64.3024 23.321 64.4536C23.4104 64.5775 23.5187 64.6864 23.6419 64.7763C23.7923 64.8609 23.9575 64.9157 24.1285 64.9377C24.3914 65.0208 24.6732 65.0208 24.9361 64.9377C25.119 64.8657 25.2848 64.7557 25.4227 64.615L61.6594 31.4357C61.7941 31.2819 61.8928 31.0996 61.9483 30.9024C62.0038 30.7052 62.0148 30.498 61.9803 30.2959C61.9788 30.0694 61.9238 29.8464 61.8199 29.6454C61.7717 29.5865 61.7179 29.5325 61.6594 29.484C61.5225 29.3421 61.3564 29.232 61.1728 29.1613C61.0238 29.0776 60.8605 29.0228 60.6913 29Z" fill="black" fill-opacity="0.333"/>
<path d="M24 64L24.196 31.1607L61 31L24 64Z" fill="url(#paint8_linear_229_197)"/>
<path d="M55.5269 54.7473C54.9256 54.8095 54.3814 55.1309 54.0342 55.6284C53.6869 56.126 53.5833 56.7531 53.7439 57.3388L57.3098 69.809L81.9288 179.299L79.6586 191.282C79.6057 191.571 79.6157 191.869 79.6879 192.155C79.76 192.441 79.8928 192.708 80.0771 192.938C80.2614 193.168 80.4929 193.355 80.756 193.488C81.0192 193.621 81.3077 193.696 81.6022 193.707H117.396C117.707 193.698 118.011 193.618 118.288 193.475C118.564 193.331 118.804 193.128 118.991 192.879C119.177 192.63 119.306 192.342 119.366 192.037C119.426 191.732 119.417 191.417 119.339 191.116L117.069 179.615L123.226 156.131L130.84 179.946L127.44 190.96C127.33 191.271 127.296 191.604 127.341 191.931C127.386 192.258 127.509 192.57 127.699 192.84C127.89 193.109 128.142 193.329 128.435 193.481C128.728 193.633 129.054 193.712 129.384 193.712L169.712 193.878C170.043 193.879 170.369 193.801 170.662 193.649C170.956 193.498 171.209 193.278 171.4 193.008C171.59 192.738 171.713 192.426 171.758 192.098C171.802 191.771 171.767 191.437 171.656 191.126L166.96 178.49L185.422 72.4004L192.388 57.6601C192.528 57.3535 192.591 57.0171 192.571 56.6805C192.551 56.3439 192.449 56.0173 192.273 55.7294C192.098 55.4414 191.854 55.2008 191.564 55.0287C191.274 54.8566 190.947 54.7582 190.61 54.7421H155.459C155.151 54.731 154.844 54.7891 154.561 54.9122C154.278 55.0353 154.027 55.2202 153.825 55.4535C153.623 55.6867 153.476 55.9623 153.395 56.2598C153.313 56.5574 153.3 56.8694 153.355 57.1729L155.459 69.1559L143.31 137.669L124.362 64.4653C124.219 64.064 123.955 63.7167 123.607 63.4711C123.259 63.2255 122.844 63.0936 122.418 63.0936C121.992 63.0936 121.576 63.2255 121.228 63.4711C120.88 63.7167 120.617 64.064 120.474 64.4653L102.173 137.187L86.9459 69.1611L88.8895 57.1781C88.932 56.8508 88.8954 56.518 88.7826 56.2078C88.6699 55.8975 88.4844 55.6189 88.2416 55.3952C88.0547 55.1951 87.8294 55.0346 87.5792 54.9233C87.329 54.812 87.059 54.7521 86.7852 54.7473H55.6875C55.6341 54.7421 55.5803 54.7421 55.5269 54.7473Z" fill="black" fill-opacity="0.288"/>
<path d="M54.879 53.1251C54.3835 53.2415 53.9168 53.4574 53.5073 53.7596C53.0977 54.0618 52.7538 54.444 52.4965 54.8831C52.2391 55.3222 52.0737 55.8091 52.0101 56.3141C51.9466 56.819 51.9863 57.3317 52.1268 57.8209L55.6875 70.1304H55.5269L80.1458 179.293L77.8757 190.955C77.7895 191.494 77.8213 192.046 77.9689 192.572C78.1165 193.098 78.3764 193.586 78.7306 194.001C79.0848 194.417 79.5249 194.751 80.0207 194.98C80.5164 195.21 81.056 195.329 81.6022 195.329H117.396C117.958 195.332 118.513 195.21 119.022 194.971C119.531 194.732 119.98 194.382 120.337 193.948C120.694 193.514 120.95 193.005 121.086 192.46C121.221 191.914 121.234 191.345 121.122 190.794L118.852 179.781L123.387 162.449L129.057 179.941L125.818 190.468C125.481 191.603 125.699 192.826 126.393 193.785C127.088 194.744 128.197 195.309 129.379 195.329L169.712 195.495C170.315 195.494 170.908 195.349 171.443 195.071C171.978 194.794 172.439 194.393 172.788 193.902C173.137 193.411 173.363 192.843 173.449 192.247C173.534 191.651 173.475 191.042 173.278 190.473L168.743 178.164L187.044 73.209L194.01 58.4687C194.268 57.896 194.379 57.2681 194.334 56.6415C194.289 56.015 194.089 55.4095 193.752 54.8796C193.414 54.3496 192.951 53.9118 192.402 53.6056C191.854 53.2993 191.238 53.1342 190.61 53.1251H155.459C154.913 53.1259 154.374 53.2449 153.879 53.4738C153.384 53.7028 152.944 54.0364 152.59 54.4516C152.236 54.8668 151.976 55.3537 151.828 55.879C151.68 56.4043 151.647 56.9553 151.733 57.4943L153.676 69.156L143.15 129.413L126.144 63.9782C125.991 63.1016 125.533 62.3074 124.851 61.735C124.169 61.1627 123.308 60.849 122.418 60.849C121.528 60.849 120.666 61.1627 119.985 61.735C119.303 62.3074 118.845 63.1016 118.691 63.9782L102.173 129.413L88.7288 68.6739L90.5117 57.4995C90.5989 56.9603 90.5677 56.4085 90.4205 55.8825C90.2732 55.3565 90.0133 54.8687 89.6589 54.4531C89.3044 54.0375 88.8638 53.7039 88.3676 53.4755C87.8714 53.2471 87.3314 53.1293 86.7852 53.1303H55.6875C55.4189 53.1001 55.1479 53.0984 54.879 53.1251Z" fill="black" fill-opacity="0.288"/>
<path d="M54.5525 51.508C53.8242 51.6611 53.1356 51.9636 52.5303 52.3964C51.9249 52.8292 51.4159 53.3829 51.0355 54.0225C50.6551 54.6621 50.4114 55.3736 50.3201 56.1122C50.2287 56.8507 50.2915 57.6002 50.5046 58.3132L54.0705 70.462V70.7833L78.5288 178.977L76.2586 190.639C75.9839 192.214 76.4193 193.826 77.4507 195.055C78.4821 196.268 80.0059 196.967 81.6022 196.957H117.396C118.201 196.966 118.999 196.795 119.73 196.456C120.46 196.117 121.106 195.618 121.618 194.997C122.131 194.375 122.498 193.647 122.692 192.865C122.886 192.083 122.902 191.267 122.739 190.478L120.474 179.459L123.553 168.119L127.28 179.941L124.201 189.986C123.954 190.794 123.9 191.649 124.044 192.481C124.189 193.314 124.527 194.101 125.031 194.779C125.536 195.457 126.192 196.007 126.948 196.384C127.705 196.762 128.539 196.956 129.384 196.952L169.712 197.112C170.562 197.1 171.397 196.886 172.149 196.489C172.901 196.092 173.548 195.523 174.038 194.828C174.528 194.133 174.846 193.332 174.967 192.49C175.088 191.649 175.008 190.791 174.735 189.986L170.36 178.163L188.661 73.5303L195.461 59.1165C195.832 58.2998 195.994 57.4032 195.931 56.5082C195.867 55.6132 195.582 54.7482 195.099 53.9918C194.617 53.2353 193.953 52.6114 193.168 52.1768C192.383 51.7421 191.502 51.5104 190.605 51.5028H155.459C154.669 51.4951 153.887 51.6617 153.169 51.9907C152.45 52.3197 151.813 52.8031 151.303 53.4064C150.793 54.0097 150.422 54.718 150.217 55.4811C150.011 56.2441 149.977 57.0429 150.116 57.8208L152.059 69.1611L142.668 121.965L127.606 63.6568C127.288 62.5274 126.609 61.533 125.673 60.8248C124.738 60.1165 123.596 59.7333 122.423 59.7333C121.25 59.7333 120.108 60.1165 119.173 60.8248C118.237 61.533 117.559 62.5274 117.24 63.6568L102.334 122.934L90.351 69.0004L92.134 57.6601C92.2469 56.894 92.1927 56.1126 91.9752 55.3693C91.7577 54.6261 91.3821 53.9387 90.874 53.3543C90.3659 52.7699 89.7374 52.3024 89.0317 51.9837C88.3259 51.665 87.5595 51.5027 86.7852 51.508H55.6875C55.3103 51.4665 54.9297 51.4665 54.5525 51.508Z" fill="black" fill-opacity="0.288"/>
<path d="M54.879 49.5644C53.8199 49.6732 52.7973 50.0115 51.8822 50.5556C50.9672 51.0998 50.1817 51.8368 49.5803 52.7153C48.979 53.5939 48.5763 54.5929 48.4003 55.6429C48.2242 56.6929 48.2791 57.7686 48.561 58.7952L52.1268 70.944V71.2654L76.5851 179.299L74.4809 190.152C74.2719 191.209 74.2987 192.298 74.5593 193.344C74.8199 194.389 75.3079 195.364 75.9886 196.199C76.6692 197.034 77.5256 197.709 78.4968 198.175C79.4681 198.641 80.5302 198.887 81.6074 198.895H117.401C119.78 198.906 122.014 197.75 123.392 195.817C124.771 197.75 127.005 198.906 129.384 198.895L169.712 199.061C172.102 199.04 174.33 197.859 175.678 195.889C177.025 193.92 177.342 191.422 176.512 189.182L172.464 178.008L190.444 74.3492L197.244 60.0961C198.348 57.8156 198.198 55.1309 196.85 52.9851C196.184 51.9324 195.262 51.0662 194.169 50.4679C193.077 49.8695 191.85 49.5586 190.605 49.5644H155.459C154.385 49.5546 153.322 49.7811 152.345 50.2278C151.368 50.6746 150.501 51.3306 149.806 52.1495C149.11 52.9684 148.604 53.9301 148.321 54.9666C148.039 56.0031 147.988 57.089 148.172 58.1473L150.116 69.1611L142.341 112.729L129.544 63.1696C129.165 61.565 128.254 60.1355 126.961 59.1126C125.668 58.0896 124.067 57.5331 122.418 57.5331C120.769 57.5331 119.168 58.0896 117.875 59.1126C116.581 60.1355 115.671 61.565 115.291 63.1696L102.495 114.19L92.2895 68.8398L94.0724 57.9867C94.2312 56.9401 94.1613 55.8715 93.8674 54.8545C93.5735 53.8376 93.0627 52.8964 92.37 52.0959C91.6774 51.2954 90.8195 50.6545 89.8553 50.2175C88.8912 49.7805 87.8437 49.5577 86.7852 49.5644H55.6875C55.4182 49.5488 55.1483 49.5488 54.879 49.5644ZM123.714 175.251L125.331 180.112L123.548 185.617L122.413 180.112L123.714 175.251Z" fill="black" fill-opacity="0.288"/>
<path d="M55.6461 56.8516L59.3311 69.2803L84.033 179.174L81.6022 191.65H117.437L114.965 179.625L123.102 148.771L132.903 180.029L129.42 191.65L169.79 191.732L164.83 178.552L183.385 72.1361L190.599 56.8309L155.459 56.8516L157.496 69.2181L143.782 147.392L122.423 64.9525L102.013 145.936L84.8468 68.8397L86.7852 56.8516H55.6461Z" fill="black" fill-opacity="0.288"/>
<path d="M55.6875 56.8516L73.2007 69.7882L96.6432 178.811L81.5815 191.65L84.0331 179.138L59.4141 69.3218L55.6875 56.8516Z" fill="url(#paint9_linear_229_197)"/>
<path d="M96.6639 178.811L81.5815 191.65L117.479 191.608L103.63 178.894L96.6639 178.811Z" fill="#792100"/>
<path d="M86.7023 56.9708L73.2162 69.8245L96.6587 178.806L103.562 178.868L102.173 144.962L85.4895 69.3218L86.7023 56.9708Z" fill="url(#paint10_linear_229_197)"/>
<path d="M117.458 191.65L103.65 178.915L123.024 104.472L123.107 148.73L114.97 179.625L117.458 191.65Z" fill="url(#paint11_linear_229_197)"/>
<path d="M122.418 64.7867L123.066 104.146L103.609 178.957L102.334 145.283L122.418 64.7867Z" fill="url(#paint12_linear_229_197)"/>
<path d="M55.6461 56.8516L73.2214 69.809L86.7852 56.8931L55.6461 56.8516Z" fill="url(#paint13_linear_229_197)"/>
<path d="M122.376 64.8696L123.024 104.431L140.859 178.967L151.981 179.024L122.376 64.8696Z" fill="url(#paint14_linear_229_197)"/>
<path d="M123.024 104.472L123.107 148.647L132.934 180.009L129.451 191.598L140.962 179.014L123.024 104.472Z" fill="url(#paint15_linear_229_197)"/>
<path d="M151.935 178.957L141.004 178.998L129.373 191.65L169.764 191.722L151.935 178.957Z" fill="#792100"/>
<path d="M183.349 71.965L190.568 56.9397L171.122 67.9379L151.857 178.988L169.806 191.758L164.835 178.563L183.349 71.965Z" fill="url(#paint16_linear_229_197)"/>
<path d="M157.496 69.1611L155.402 56.9708L171.143 67.8654L151.857 178.874L143.766 147.372L157.496 69.1611Z" fill="url(#paint17_linear_229_197)"/>
<path d="M155.381 56.9346L171.044 67.9846L190.651 56.8672L155.381 56.9346Z" fill="url(#paint18_linear_229_197)"/>
<path d="M123.066 4.70087C57.797 4.70087 4.83252 57.7379 4.83252 123.1C4.83252 188.462 57.797 241.494 123.066 241.494C188.34 241.494 241.299 188.457 241.299 123.095C241.299 57.7327 188.34 4.70087 123.066 4.70087ZM122.579 25.1061C176.113 25.1061 219.437 68.534 219.437 122.286C219.437 176.039 176.113 219.627 122.579 219.627C69.044 219.627 25.5591 176.039 25.5591 122.286C25.5643 68.534 69.044 25.1061 122.579 25.1061Z" fill="black" fill-opacity="0.263"/>
<path d="M123.066 2.91791C56.8226 2.91791 3.04959 56.7687 3.04959 123.1C3.04959 189.426 56.8226 243.282 123.066 243.282C189.309 243.282 243.082 189.426 243.082 123.1C243.082 56.7687 189.309 2.91791 123.066 2.91791ZM122.579 26.889C175.139 26.889 217.654 69.5032 217.654 122.286C217.654 175.069 175.139 217.849 122.579 217.849C70.0236 217.849 27.342 175.069 27.342 122.286C27.342 69.5083 70.0184 26.889 122.579 26.889Z" fill="black" fill-opacity="0.278"/>
<path d="M123.066 -6.10352e-05C55.247 -6.10352e-05 0.131592 55.1931 0.131592 123.095C0.131592 190.997 55.247 246.19 123.066 246.19C190.89 246.19 246 190.997 246 123.095C246 55.1931 190.89 -6.10352e-05 123.066 -6.10352e-05ZM122.579 29.8019C173.563 29.8019 214.736 71.0684 214.736 122.286C214.736 173.504 173.548 214.931 122.579 214.931C71.6095 214.931 30.26 173.489 30.26 122.286C30.26 71.084 71.594 29.8019 122.579 29.8019Z" fill="black" fill-opacity="0.414"/>
<path d="M123.066 6.47864C58.7455 6.47864 6.61027 58.6864 6.61027 123.095C6.61027 187.508 58.7455 239.711 123.066 239.711C187.386 239.711 239.521 187.508 239.521 123.095C239.521 58.6864 187.386 6.47864 123.066 6.47864ZM122.579 23.3232C177.067 23.3232 221.215 67.5907 221.215 122.286C221.215 176.982 177.062 221.41 122.579 221.41C68.0955 221.41 23.7814 176.982 23.7814 122.286C23.7814 67.5907 68.0955 23.3232 122.579 23.3232Z" fill="url(#paint19_linear_229_197)"/>
<path d="M120.127 7.24048C59.0616 7.24048 9.66821 56.7013 9.66821 117.865C9.66821 179.029 59.0668 228.49 120.127 228.49C181.187 228.49 230.591 179.029 230.591 117.865C230.591 56.7013 181.192 7.24048 120.127 7.24048ZM119.64 12.0969C177.383 12.0969 224.273 59.1165 224.273 117.051C224.273 174.986 177.399 222.167 119.64 222.167C61.8812 222.167 14.8511 175.002 14.8511 117.051C14.8511 59.101 61.8967 12.0969 119.64 12.0969Z" fill="url(#paint20_linear_229_197)"/>
</g>
<defs>
<linearGradient id="paint0_linear_229_197" x1="60.3988" y1="-3.32749" x2="171.739" y2="211.998" gradientUnits="userSpaceOnUse">
<stop stop-color="#5B779E"/>
<stop offset="0.399" stop-color="#2D3B50"/>
<stop offset="1" stop-color="#0C0E14"/>
</linearGradient>
<linearGradient id="paint1_linear_229_197" x1="100.629" y1="43.6766" x2="134.219" y2="117.264" gradientUnits="userSpaceOnUse">
<stop stop-opacity="0"/>
<stop offset="1" stop-opacity="0.621"/>
</linearGradient>
<radialGradient id="paint2_radial_229_197" cx="0" cy="0" r="1" gradientUnits="userSpaceOnUse" gradientTransform="translate(83.9404 39.4549) rotate(-11.4923) scale(148.554 77.2704)">
<stop stop-color="#BDD9F9"/>
<stop offset="0.065" stop-color="#BDD9F9"/>
<stop offset="1" stop-color="#1C3556" stop-opacity="0.101"/>
</radialGradient>
<linearGradient id="paint3_linear_229_197" x1="12.2856" y1="36.0317" x2="70.49" y2="161.713" gradientUnits="userSpaceOnUse">
<stop stop-opacity="0"/>
<stop offset="1" stop-opacity="0.621"/>
</linearGradient>
<radialGradient id="paint4_radial_229_197" cx="0" cy="0" r="1" gradientUnits="userSpaceOnUse" gradientTransform="translate(59.1653 69.8479) rotate(-11.4923) scale(148.534 77.2601)">
<stop stop-color="#BDD9F9"/>
<stop offset="0.065" stop-color="#BDD9F9"/>
<stop offset="1" stop-color="#1C3556" stop-opacity="0.101"/>
</radialGradient>
<linearGradient id="paint5_linear_229_197" x1="195.984" y1="24.7668" x2="228.541" y2="53.9255" gradientUnits="userSpaceOnUse">
<stop stop-color="#FDEC97"/>
<stop offset="0.353" stop-color="#FDEC97"/>
<stop offset="0.513" stop-color="#FDEC97"/>
<stop offset="0.628" stop-color="#DB990F"/>
<stop offset="1" stop-color="#DB990F"/>
</linearGradient>
<linearGradient id="paint6_linear_229_197" x1="198.679" y1="222.418" x2="232.288" y2="187.728" gradientUnits="userSpaceOnUse">
<stop stop-color="#FFDC76"/>
<stop offset="0.327" stop-color="#E4903B"/>
<stop offset="0.451" stop-color="#CA4400"/>
<stop offset="0.58" stop-color="#FDEC97"/>
<stop offset="0.704" stop-color="#DB990F"/>
<stop offset="1" stop-color="#DB990F"/>
</linearGradient>
<linearGradient id="paint7_linear_229_197" x1="40.1704" y1="216.45" x2="17.4515" y2="190.733" gradientUnits="userSpaceOnUse">
<stop stop-color="#FFDC76"/>
<stop offset="0.327" stop-color="#E4903B"/>
<stop offset="0.451" stop-color="#CA4400"/>
<stop offset="0.58" stop-color="#FDEC97"/>
<stop offset="0.704" stop-color="#DB990F"/>
<stop offset="1" stop-color="#DB990F"/>
</linearGradient>
<linearGradient id="paint8_linear_229_197" x1="17.133" y1="55.6359" x2="48.3002" y2="24.2602" gradientUnits="userSpaceOnUse">
<stop stop-color="#CA4400"/>
<stop offset="0.353" stop-color="#CA4400"/>
<stop offset="0.513" stop-color="#FDEC97"/>
<stop offset="0.628" stop-color="#DB990F"/>
<stop offset="1" stop-color="#DB990F"/>
</linearGradient>
<linearGradient id="paint9_linear_229_197" x1="61.0208" y1="57.6446" x2="89.1693" y2="183.295" gradientUnits="userSpaceOnUse">
<stop stop-color="#DA940F"/>
<stop offset="0.235" stop-color="#EFD11A"/>
<stop offset="0.75" stop-color="#EFD11A"/>
<stop offset="0.908" stop-color="#EFD11A"/>
<stop offset="1" stop-color="#D3900E"/>
</linearGradient>
<linearGradient id="paint10_linear_229_197" x1="78.6791" y1="57.2714" x2="103.604" y2="175.733" gradientUnits="userSpaceOnUse">
<stop stop-color="#C63000"/>
<stop offset="0.491" stop-color="#DB9000"/>
<stop offset="0.8" stop-color="#DB9000"/>
<stop offset="1" stop-color="#C43B00"/>
</linearGradient>
<linearGradient id="paint11_linear_229_197" x1="127.855" y1="113.32" x2="109.554" y2="189.447" gradientUnits="userSpaceOnUse">
<stop stop-color="#AD2F00"/>
<stop offset="1" stop-color="#CB7500"/>
</linearGradient>
<linearGradient id="paint12_linear_229_197" x1="127.585" y1="77.1428" x2="101.474" y2="157.313" gradientUnits="userSpaceOnUse">
<stop stop-color="#ECD500"/>
<stop offset="0.869" stop-color="#ECD500"/>
<stop offset="1" stop-color="#FFEF57"/>
</linearGradient>
<linearGradient id="paint13_linear_229_197" x1="70.915" y1="56.2193" x2="77.3263" y2="70.0111" gradientUnits="userSpaceOnUse">
<stop stop-color="#FFD511"/>
<stop offset="1" stop-color="#FDF8DC"/>
</linearGradient>
<linearGradient id="paint14_linear_229_197" x1="117.95" y1="74.7587" x2="148.167" y2="179.008" gradientUnits="userSpaceOnUse">
<stop stop-color="#BD3300"/>
<stop offset="0.188" stop-color="#BD3300"/>
<stop offset="0.411" stop-color="#CB8500"/>
<stop offset="1" stop-color="#C26F00"/>
</linearGradient>
<linearGradient id="paint15_linear_229_197" x1="116.722" y1="115.18" x2="136.806" y2="184.502" gradientUnits="userSpaceOnUse">
<stop stop-color="#FFD303"/>
<stop offset="0.902" stop-color="#FFD303"/>
<stop offset="1" stop-color="#D27E00"/>
</linearGradient>
<linearGradient id="paint16_linear_229_197" x1="182.519" y1="54.426" x2="159.916" y2="190.872" gradientUnits="userSpaceOnUse">
<stop stop-color="#A51F00"/>
<stop offset="0.288" stop-color="#C67200"/>
<stop offset="0.644" stop-color="#C67200"/>
<stop offset="1" stop-color="#C25500"/>
</linearGradient>
<linearGradient id="paint17_linear_229_197" x1="165.017" y1="57.3647" x2="142.341" y2="177.972" gradientUnits="userSpaceOnUse">
<stop stop-color="#CD7C00"/>
<stop offset="0.314" stop-color="#EED700"/>
<stop offset="1" stop-color="#EED700"/>
</linearGradient>
<linearGradient id="paint18_linear_229_197" x1="172.703" y1="56.2452" x2="178.658" y2="68.0572" gradientUnits="userSpaceOnUse">
<stop stop-color="#FFD511"/>
<stop offset="1" stop-color="#FDF8DC"/>
</linearGradient>
<linearGradient id="paint19_linear_229_197" x1="-6.88611" y1="177.194" x2="261.331" y2="65.5383" gradientUnits="userSpaceOnUse">
<stop stop-color="#51290E"/>
<stop offset="0.346" stop-color="#D08E29"/>
<stop offset="0.417" stop-color="#E1D02D"/>
<stop offset="0.498" stop-color="#F6E57F"/>
<stop offset="0.537" stop-color="#F6E57F"/>
<stop offset="0.605" stop-color="#E1D02D"/>
<stop offset="0.687" stop-color="#D08E29"/>
<stop offset="1" stop-color="#452A15"/>
</linearGradient>
<linearGradient id="paint20_linear_229_197" x1="187.49" y1="213.34" x2="48.8461" y2="16.8445" gradientUnits="userSpaceOnUse">
<stop stop-color="#FFE12B"/>
<stop offset="0.136" stop-color="#FFF7C7" stop-opacity="0"/>
<stop offset="0.819" stop-color="#FFF7C7" stop-opacity="0"/>
<stop offset="1" stop-color="#FFE12B"/>
</linearGradient>
<clipPath id="clip0_229_197">
<rect width="246" height="247" fill="white"/>
</clipPath>
</defs>
</svg>
